<svg xmlns="http://www.w3.org/2000/svg" viewBox="0 0 100 87.89"><defs><style>.cls-1{isolation:isolate;}.cls-2,.cls-3{fill:#fec997;}.cls-3{opacity:0.5;}.cls-3,.cls-5,.cls-7{mix-blend-mode:multiply;}.cls-4,.cls-5{fill:#184984;}.cls-5,.cls-7{opacity:0.3;}.cls-6{fill:#00598d;}.cls-7{fill:#398496;}.cls-8{fill:#fff;}</style></defs><title>Ресурс 1</title><g class="cls-1"><g id="Слой_2" data-name="Слой 2"><g id="OBJECTS"><path class="cls-2" d="M95.28,51.76a7.46,7.46,0,0,1,2.18,5.32A7.09,7.09,0,0,1,92.6,64a6.76,6.76,0,0,1,2,4.88v.22a6.48,6.48,0,0,1-4.27,6.25,7,7,0,0,1,2.29,5.22v.63c0,3.69-2.75,6.71-6.1,6.71H52.79s-9,0-10.74-2.15a14.5,14.5,0,0,0-4.45-3.3c-.71-.37-1.2-.58-1.2-.58H26V46s9.14-.59,14.71-3.52a11,11,0,0,0,2.63-1.86c4.52-4.56,11.31-17.19,12.25-23.82s-.75-11.18,0-14.49,12.06-5.8,15.45,12A47.18,47.18,0,0,1,71.12,33c-.22,1-.47,2-.72,2.85H92.51a7,7,0,0,1,4,1.27,8.46,8.46,0,0,1,3.51,7A8.28,8.28,0,0,1,95.28,51.76Z"/><path class="cls-3" d="M40.74,42.52,37.6,82.44c-.71-.37-1.2-.58-1.2-.58H26V46S35.17,45.45,40.74,42.52Z"/><path class="cls-4" d="M35,42.75V84.4a3.49,3.49,0,0,1-3.49,3.49h-28A3.49,3.49,0,0,1,.05,83.8L3.58,63.58,7.32,42.15a3.48,3.48,0,0,1,3.43-2.88H31.47A3.48,3.48,0,0,1,35,42.75Z"/><path class="cls-5" d="M1.51,75.43.05,83.8a3.49,3.49,0,0,0,3.44,4.09h28A3.49,3.49,0,0,0,35,84.4v-9Z"/><circle class="cls-5" cx="12.33" cy="77.59" r="3.82"/><circle class="cls-6" cx="11.34" cy="77.21" r="3.82"/><path class="cls-7" d="M12.72,73.65a3.17,3.17,0,1,1-5.2,3.54v0a3.82,3.82,0,1,0,5.2-3.56Z"/><path class="cls-3" d="M100,44.12a8.46,8.46,0,0,0-3.51-7h0c-.14-.09-.28-.19-.43-.27h0l-.39-.21-.13-.06-.34-.16-.09,0-.42-.15-.16-.06-.32-.08-.13,0L93.61,36h-.1l-.38,0H93l-.48,0H70.4q.1-.36.21-.75c0-.14.08-.28.11-.43s.08-.28.11-.42.07-.28.1-.43.13-.54.19-.82h0a47.18,47.18,0,0,0-.05-18.68C68.22-.61,59.77-1.24,56.71.91c3,1.59,6.12,5.5,7.64,13.45a45.55,45.55,0,0,1-.68,21.53v3.38H88.38A4.86,4.86,0,0,1,93.27,44v.08a8.28,8.28,0,0,1-4.72,7.64,7.46,7.46,0,0,1,2.18,5.32A7.08,7.08,0,0,1,85.87,64a6.76,6.76,0,0,1,2,4.88v.22a6.48,6.48,0,0,1-4.27,6.25,7,7,0,0,1,2.29,5.22v.63c0,3.69-2.74,6.71-6.1,6.71h6.73c3.35,0,6.1-3,6.1-6.71v-.63a7,7,0,0,0-2.29-5.22,6.48,6.48,0,0,0,4.27-6.25v-.22a6.76,6.76,0,0,0-2-4.88,7.09,7.09,0,0,0,4.86-6.9,7.46,7.46,0,0,0-2.18-5.32A8.28,8.28,0,0,0,100,44.12Z"/><path class="cls-8" d="M11.09,74.48a1.18,1.18,0,0,1-.34,1.59,1.18,1.18,0,0,1-1.61.21,1.2,1.2,0,0,1,.34-1.6A1.19,1.19,0,0,1,11.09,74.48Z"/></g></g></g></svg>